<?xml version="1.0" encoding="utf-8"?>
<!-- Generator: Adobe Illustrator 27.6.1, SVG Export Plug-In . SVG Version: 6.00 Build 0)  -->
<svg version="1.1" id="Layer_1" xmlns="http://www.w3.org/2000/svg" xmlns:xlink="http://www.w3.org/1999/xlink" x="0px" y="0px"
	 viewBox="0 0 964.7 695.7" style="enable-background:new 0 0 964.7 695.7;" xml:space="preserve">
<style type="text/css">
	.st0{fill:#0056A3;}
	.st1{fill:url(#SVGID_1_);}
	.st2{fill:#004993;}
	.st3{fill:#FFFFFF;}
	.st4{fill:url(#SVGID_00000041974026556100526220000016734574444412318896_);}
	.st5{fill:url(#SVGID_00000080176199645530558040000010004234020064173756_);}
</style>
<g>
	<rect class="st0" width="964.7" height="695.7"/>
</g>
<linearGradient id="SVGID_1_" gradientUnits="userSpaceOnUse" x1="44.3405" y1="564.1123" x2="912.027" y2="564.1123">
	<stop  offset="0" style="stop-color:#EC5E26"/>
	<stop  offset="0.2486" style="stop-color:#F28C5B"/>
	<stop  offset="0.4872" style="stop-color:#FFF6F1"/>
	<stop  offset="0.7514" style="stop-color:#F28C5B"/>
	<stop  offset="1" style="stop-color:#EC5E26"/>
</linearGradient>
<path class="st1" d="M785.2,583.2c37,9.2,71.7,19.6,103.3,30.8H912c-105.7-61.9-258.6-99.9-432.4-99.9c-173.8,0-328.1,39-435.3,99.9
	h19.5c32.8-11.5,69.6-22.1,109.1-31.2c0.5-0.1,0.9-0.2,1.3-0.3l0.3,0.2c0.4-0.2,0.9-0.4,1.3-0.5c91.3-20.8,197.2-34.2,303.7-35.1
	c108.1-1,211.9,13.3,302,35.3c0,0,0.1,0,0.1,0C782.9,582.7,784,582.9,785.2,583.2z"/>
<g>
	<path class="st2" d="M783.7,582.9c-0.7-0.2-1.3-0.3-2-0.5c-90.1-22-193.9-36.2-302-35.3c-106.5,0.9-212.4,14.3-303.7,35.1
		c-0.4,0.2-0.9,0.3-1.3,0.5c-23.7,9.4-45.8,19.9-65.9,31.3h16.7c92.9-32.6,223-55.9,354-57.1c131.2-1.1,255.2,24,348.1,57.1h20.1
		C828.1,602.7,806.7,592.3,783.7,582.9z"/>
</g>
<g>
	<path class="st3" d="M127.4,211.4l-36.9,206c0,0.1-21.8,114-21.8,114c-3.9,17.6-14,26-21.7,29.8c0,0-0.5,0.2-0.8,0.4
		c0,2.7,0,31,0,31s10.1-4.9,30.6-14.7c0.1-0.1,27.7-12.2,27.7-12.2c-0.1,0.1,8.7-3.7,12.9-5.5c0-3.6,0-22.6,0-29.8
		c-0.5,0.2-1.4,0.6-1.4,0.6c-4.1,1.7-7,2.6-8.8,2.7c-0.5,0-4.3,0.6-5.9-3.3c-0.5-1-0.4-2.8-0.4-3.3l15-93c0.2-1.6,1.5-2.8,3.1-3
		c7.9-1,11.8-2.7,17.1-5.1c0,0,4.2-1.8,4.2-1.8c1-0.4,2.2-0.4,3.2,0.1c0.9,0.5,1.6,1.5,1.8,2.5l8.6,47.1c0,0,5.8,32.2,5.8,32.2l0,0
		c0,0.1,0.1,1.7,0.1,1.7c0,4.1-2.7,7.3-8.2,9.6c-0.1,0-2.2,0.8-3.9,1.5c0,3.7,0,22.4,0,29.3c2.6-0.9,5.2-1.8,5.2-1.8l28.8-9.9
		c0.1,0,29.3-9.1,29.3-9.1c0,0,8.8-2.6,13.3-3.8c0-4.2,0-19.8,0-19.8c0-1.9,1.5-3.6,3.5-3.6c9.3-0.4,23.8,0.5,39.4,7.1
		c18.1,7.7,27,12.5,38.5,19l2.8,1.6c-0.1,0,35.9,19.3,35.9,19.3c36.1,18.3,67.8,24,94,17c29-7.7,41.8-33.8,43.2-36.7
		c0,0,0.3-0.5,0.5-1.1c-2.1-2.3-8.6-9.6-12.2-13.7c-1.3,1.9-2.6,3.7-2.6,3.7c-12.8,14.1-36.8,17.5-53.8,14.8
		c-27.6-4.3-45.2-14-63.9-24.2l-12.5-6.8c-6.3-3.2-35.7-17.5-49.2-21.6c-1.1-0.3-1.9-1.1-2.3-2.1c-0.4-1.1-0.3-2.2,0.3-3.2
		c11.7-19.4,18.4-53,18.4-92.1c0-54.1-16.9-112.3-54.1-112.3h-1.4c-33.9,0-56.6,47.9-56.6,119.3c0,39.3,7.3,67.1,22.9,87.6
		c0.5,0.6,0.7,1.4,0.7,2.2c0,0.3,0,0.7-0.2,1c-0.3,1.1-1.1,2-2.2,2.3c-3.6,1.4-6.8,3-9.8,4.9c0,0-1.4,1-1.4,1
		c-1,0.7-2.3,0.9-3.4,0.4c-1.1-0.4-2-1.4-2.2-2.6l-28.4-135.2c0-0.1-27.3-138.9-27.3-138.9H127.4z M127.6,367.1
		c0.3-1.7,1.8-2.9,3.5-3c1.7,0,3.2,1.2,3.6,2.9l3.4,17c0,0,1,4.7,1,4.7c0.2,1-0.1,2.2-0.7,3c-0.7,0.9-1.7,1.4-2.7,1.4l-8.5,0.2
		c-1.1,0-2.1-0.5-2.8-1.3c-0.7-0.8-1-1.9-0.8-3l1.2-6.3l0,0L127.6,367.1z M231.6,390.7c0-3.3,0-6.6,0.1-10
		c0.8-55.1,7.4-89.3,17.3-89.3c10.4,0,16.6,33.4,16.6,89.4c0,36-2.2,96.6-16.6,96.6l-5-2.3C236,466.9,231.6,436.4,231.6,390.7z"/>
</g>
<path class="st3" d="M775.8,458.9c-0.3,1.5-1.7,2.5-3.2,2.4c-1.5-0.2-2.7-1.4-2.7-3c0,0,0-153.9,0-154c0-4.4,1.4-6.9,2.7-8.1
	c0,0,1.4-1.9,4.6-2c0.3,0,9.3,0,9.3,0s0-19.8,0-24c-3.9,0-56.3,0-61.5,0c0,4.7,0,24,0,24h10c4.8,0,7.2,3.5,7.2,10.4v40.4
	c0,1.4-1,2.7-2.5,2.9c-1.4,0.2-2.8-0.6-3.3-2L720.4,298c-0.1-0.3-0.1-0.6-0.1-0.9c0-0.4,0.2-0.9,0.4-1.3c-0.4-0.3-1.1-0.4-1.3-0.9
	c0,0-7.2-21.3-8.4-24.8c-4.1,0-109.5,0-109.5,0c-1.6,0-2.8-1.2-3-2.8c0,0-0.1-2.1-0.3-4.1c-4.7,0.5-15.6,1.6-20.7,2.1
	c0,0.9,0,1.9,0,1.9c0,0.8-0.3,1.5-0.9,2.1c-0.5,0.6-1.3,0.9-2.1,0.9c0,0-63.1,0-68.5,0c0,4.3,0,19.9,0,24.1c8.1,0.3,16,2.4,16,16.2
	v36.4c0,1.1-0.6,2.1-1.6,2.6c0,0-8.2,4.1-8.2,4.1c0,0-3.3,2.3-5.5,3.7c0.7,2.3,4.5,15,5.9,19.7c1.4-0.7,2.9-1.6,2.9-1.6
	c2.4-0.9,3.8-0.3,4.4,0.2c1.7,1.3,2,3.7,2,4.9v60.6c0,1.5-1.1,2.8-2.6,2.9c-1.5,0.2-2.9-0.8-3.2-2.2c0,0-43.8-168.8-44.9-173.2
	c-3.3,0-15.2,0-18.7,0c-3.7,17.3-36.1,166.9-36.1,166.9c-0.3,1.5-1.7,2.5-3.2,2.3c-1.5-0.2-2.6-1.5-2.6-3l0-2.3l0-133
	c0-3.3,1.4-5.1,4.2-5.3c0.1,0,6.4,0,10.3,0c0-4.3,0-19.8,0-24.1c-5.5,0-124.1,0-129.6,0c0,4.3,0,19.8,0,24.1c3.8,0,11.7,0,11.7,0
	c1.1,0,4.4,0.6,4.4,5.9v132.9c0.7,31.2,18.3,50.6,46,50.6c11.4,0,26.7-2,35.3-11.6l2.8-3.2c0.8-0.9,2.1-1.3,3.3-0.8
	c1.1,0.4,1.9,1.5,1.9,2.7c0,0,0,3.3,0,6.1c16.7-1.9,46.8-2.7,55-2.9c0-4.2,0-19.6,0-24c-3.1,0.1-7.6,0.2-7.6,0.2
	c-2.2-0.2-4-1.7-4-4.6c0.1-0.6,1.8-11,1.8-11c0-0.1,2-11.1,2-11.1c0,0.1,1.4-8.3,1.4-8.3c0.2-1.3,1.3-2.3,2.6-2.4
	c5.6-0.6,6.7-0.9,12-2.5c0.8-0.2,1.9-0.2,2.6,0.2c0.7,0.4,1.5,1.1,1.6,1.8l1.1,4.8c0,0.1,6,29.1,6,29.1c0,0.1,0,0.2,0,0.3
	c0,0.8-0.4,1.5-0.9,2.1c-0.5,0.7-1.6,1.1-2.5,1.1l-3.6,0.1c0,0-1.3,0-2.6,0c0,4.3,0,19.7,0,23.9c12.9-0.1,35.6-0.1,57.3,0.8
	c0.1,0,33.4,2,33.4,2c0.1,0,15.5,1.4,22.3,2c0-3.6,0-19.9,0-24c-0.3,0-13.9-1.3-13.9-1.3c-4.5-0.4-6.8-4.4-7-12l0.1-58.3
	c0-1.5,1.1-2.7,2.5-2.9c4.6-0.7,16.4-3.4,25.8-15c0,0,0.3-0.4,0.7-0.9c-0.4-1.9-2.9-12.9-4.1-18.2c-0.9,0.6-1.9,1.3-1.9,1.3
	c-8.7,5.3-11.9,5.9-13.6,5.9c-0.3,0-0.5,0-0.8-0.1l-3.7-1c-0.2-0.1-1.4-0.5-1.5-0.5l-1.3-0.3c-1.3-0.4-2.2-1.5-2.2-2.9l0-47.7
	c0-0.9,0.3-1.7,0.9-2.3c0.7-0.6,1.4-0.8,2.3-0.7l11.2,1.8c0.9,0.2,1.4,0.7,1.9,1.5c1.1,2.1,5.6,15.1,10.1,35.8c0,0,0.1,0.4,0.2,0.9
	c3.7-0.6,14.5-2.3,18.1-2.9c-0.3-4.7-2.5-37.6-2.5-37.7c0-0.8,0.3-1.5,0.8-2c0.6-0.6,1.3-1,2.2-1h5.4c2.7,0.2,4.5,3,4.5,6.9
	c0,0,0,150.2,0,150.2c-0.3,3.7-2,5.6-5.2,6.1c-0.2,0-0.5,0-0.8,0c0,0-5.4-0.5-8.3-0.8c0,4.7,0,20.4,0,24.2
	c4.2,0.5,24.6,3.2,24.6,3.2c0.1,0,3.6,0.5,3.6,0.5c0.1,0,34.6,5.9,34.6,5.9c0.1,0,26.6,5.3,26.6,5.3c0.1,0,26.9,6.2,26.9,6.2
	c0,0,5.9,1.6,9.9,2.6c0-4.2,0-21.3,0-24.7c-2.5-0.7-6.7-2-6.7-2c-7-2.3-10.4-5.7-12-11.8c-0.1-0.5-0.7-6.6-0.7-6.6l0-69
	c0-1.4,1.1-2.7,2.5-2.9c1.4-0.3,2.8,0.6,3.3,2l36.4,104.2c0.1,0.1,1.4,2.6,1.4,2.6c0.5,1.1,0.6,2.6-0.1,3.5
	c-0.7,0.9-1.8,1.6-2.9,1.3c0,0-0.3-0.1-0.3-0.1c0,5.5,0,22.3,0,25.6c3.6,1.1,29.5,9,29.5,9c0.1,0,34.7,12,34.7,12
	c0,0,1.9,0.8,3.9,1.5c0-6.3,0-27.3,0-30.4c-2.4-1-7.7-3-7.7-3c-2.9-1.1-6.4-2.3-6.4-7.5l0.7-5.7l2.9-18.2l8.3-51.8
	c0.2-1.3,1.2-2.3,2.5-2.4c10-1.5,14.4-2.9,22.1-6c0.8-0.3,1.7-0.3,2.5,0.1c0.8,0.5,1.3,1.2,1.5,2l3,14.9l7.9,38.8l6.5,30
	c0,0,4.3,20.6,4.3,20.6c-0.2-0.5,0.1,1.8,0.1,1.8c0.1,0.8-0.2,1.4-0.7,2c-0.8,0.9-2.4,1.6-4.4,0.8c-0.1,0-7.6-3.1-9.5-3.8
	c0,6.5,0,28.1,0,31.2c3.2,1.4,33.1,14.5,33.1,14.5c0,0,29.8,14.5,29.8,14.5l0,0c0,0,0.6,0.3,0.6,0.3c0.2,0.1,0.7,0.3,0.7,0.3
	c0.1,0.1,7.7,4,12.1,6.4c0-7.1,0-29.9,0-32.8c-1.5-0.7-3.3-1.7-3.3-1.7c-7.3-3.4-11.6-8.4-12.8-14.8c0,0-64.3-309.8-70.2-338.4
	c-3.2,0-11.6,0-14.9,0C822.1,214.4,775.8,458.9,775.8,458.9z M358,452.5L358,452.5c-4.9-4.3-5.8-12-5.9-16.3c0-0.1,0-136.7,0-136.7
	c0-1.7,0-5.4,4.6-5.4h19.8c2.9,0,4.6,2,4.6,5.4l0,128.8c0,11-0.1,26-12.2,27.2C364.4,456,360.8,455,358,452.5z M656.1,465.2
	c-4.6-1.2-4.6-6.9-4.6-8.8V301.1c0.2-4,2.2-6.7,5.1-6.9H669c4.7,0.2,7.2,3.6,7.2,9.5l0,155.4c0,2-0.2,4.5-2.1,6.3
	c-1.4,1.3-3.5,1.9-6.3,1.8c-0.4,0-7.9-1.4-7.9-1.4l-0.9-0.2C659,465.6,656.2,465.2,656.1,465.2z M823,389.2c-0.9,0-1.7-0.4-2.2-1
	c-0.6-0.6-0.8-1.5-0.7-2.4l3.1-20.6c0.2-1.3,1.4-2.4,2.8-2.5c1.4,0,2.6,0.9,3,2.2l5.5,20.6c0.2,0.9,0,1.8-0.5,2.5
	c-0.6,0.7-1.4,1.1-2.4,1.1L823,389.2z"/>
<g>
	<path class="st2" d="M464.5,514.5c-11.6,12.7-34.2,15.8-50.3,13.3c-26.9-4.2-44.3-13.7-62.7-23.8l-12.6-6.8
		c-6.5-3.4-36.2-17.8-49.9-21.8c12-19.9,18.9-54,18.9-93.9c0-55.8-18.1-115.9-57.7-115.9h-1.4c-36,0-60.3,49.4-60.3,122.9
		c0,40.1,7.6,68.7,23.6,89.8c-3.6,1.3-7.1,3.1-10.5,5.3c0,0-0.7,0.5-1.5,1.1c-3.8-18.1-28.4-135.1-28.4-135.1l-14.8-76.3L144,207.7
		h-19.6l-37.5,209L65.2,530.6c-3.5,16.2-12.7,23.8-19.8,27.3l-2.9,1.5l0,39l10.8-5.3c0,0,25-11.9,25-11.9l27.6-12.2
		c0,0,15.1-6.4,15.1-6.4v-37.6l-6.4,2.6c-1.7,0.7-5.8,2.3-7.7,2.4c0,0-1.6,0.1-2.1-0.5c-0.7-0.9-0.5-1.9-0.5-1.9
		s14.2-87.5,15.1-93.1c8.3-1,12.5-2.9,18.1-5.3c0,0,2.9-1.3,4.1-1.8c0.3,1.8,8.6,47.1,8.6,47.1l5.8,32.2c0.1,0.4,0.1,0.7,0.1,1
		c0,2.5-2,4.6-6,6.2c0,0-5.6,2.1-5.6,2.1l-0.5,0.2v36.7l10-3.3l8.3-2.9l20.5-7l29.2-9l15.8-4.7v-22.5c11.4-0.5,24.8,1.3,37.8,6.9
		c17.9,7.7,26.7,12.5,38.1,18.9l2.8,1.6l36,19.4c37,18.7,69.5,24.5,96.6,17.3c30.5-8.1,44.1-35.6,45.6-38.7l1.5-3.3L469.7,507
		L464.5,514.5z M127,389.6c0.3-1.4,1.2-6.4,1.2-6.4s2-10.6,3-15.5c1,5.1,3.4,17,3.4,17s0.7,3.5,1,4.7
		C134.2,389.5,128.3,389.6,127,389.6z M249,473.6c-0.8,0-1.6-0.4-2.5-1.3c-5.9-6-12-33.3-11.2-91.7c1-71.2,11-85.8,13.7-85.8
		c3.3,0,13,15.7,13,85.8C262,444.5,255.2,473.6,249,473.6z"/>
	<path class="st2" d="M922.1,561.4c-6.4-3-10.2-7.3-11.3-12.8l-70.7-340.8h-19.7l-0.1,0.6c-0.4,2.2-32.4,171.2-47.4,249.9V304.7
		c-0.1-3.7,0.9-5.6,1.8-6.5c0.7-0.7,1.6-1.1,2.5-1.1h12.3v-29.9h-0.7h-66.6V294l-9.1-26.8H601.5l-0.5-7.2l-0.8,0.1l-25.7,2.6
		l0.1,4.5h-71.5v29.9h0.8c10,0,15.1,2,15.1,13.3c0,0,0,35.5,0,36.4c-0.9,0.5-8.2,4.1-8.2,4.1l-7.6,5.2l7.6,25.2l6.1-3.2
		c0.6-0.2,1-0.2,1.3,0c0.6,0.4,0.8,1.8,0.8,2.5c0,0.1,0,50.8,0,60.6c-2.8-10.7-45.5-175.3-45.5-175.3h-23.3c0,0-29,133.9-36.6,169.2
		c0-0.8,0-1.6,0-2.4v-133c0-2.3,0.7-2.3,1.4-2.4h13v-29.9H292.8v29.9c0,0,14.6,0,14.7,0c0.4,0,1.5,0.1,1.5,2.9v132.9
		c0.7,33.1,19.5,53.5,49,53.5c12,0,28.2-2.2,37.5-12.6c1-1.1,1.9-2.2,2.8-3.2v9.3l0.8-0.1c18.4-2.3,58.9-3.1,59.3-3.1l0.7,0v-29.9
		l-10.7,0.3c-0.2,0-1-0.3-1-1.7l1.7-10.5l2-11c0,0,1.2-6.9,1.4-8.3c5.9-0.7,7.1-1,12.5-2.5c0,0,0.3-0.1,0.5-0.1
		c0.3,1.2,1.1,4.8,1.1,4.8s5.7,27.5,6,29c-0.2,0-0.5,0-0.5,0c0,0-3.7,0.1-3.7,0.1h-5.4v29.9h0.8c12.4-0.1,36.7-0.2,59.4,0.8
		l33.3,1.9l25.4,2.3l0.1-0.9v-29.2l-2.7-0.2l-13.8-1.3c-1,0-4.1-0.3-4.3-9.1c0,0,0.1-52.1,0.1-58.2c4.5-0.6,17.4-3.4,27.7-16.1
		c0.1-0.1,1.5-2.2,1.5-2.2l-5.3-23.6l-5.5,3.7c-7.3,4.5-10.5,5.4-11.9,5.4l-3.7-1l-1.3-0.4c0,0-0.9-0.3-1.5-0.5
		c0-1.1,0.1-46.1,0.1-47.7c4,0.4,6.9,0.6,10.7,1.7c0.9,1.9,5.4,14.7,9.9,35.2l0.8,3.7l23.4-3.8l-2.6-40.2h5.4c0.5,0,1.5,1.2,1.5,4
		v150.2c-0.2,2.1-0.9,2.9-2.7,3.2l-10.8-1l-0.8-0.1v30l27.2,3.6l3.5,0.5l34.6,5.8l26.5,5.4l26.8,6.2l13.5,3.6l0-1v-29.8l-8.8-2.6
		c-6-2-8.6-4.5-9.9-9.7c0-0.1-0.6-6.2-0.6-6.2s0-60.9,0-68.7c2.7,7.7,36.4,104.2,36.4,104.2c0.5,1.5,1.1,2.6,1.9,3.5
		c-2.3-0.6-4.1-1.1-4.1-1.1v31.6l31.6,9.7l34.6,12l7.8,3v-36.7l-9.6-3.7c-3.3-1.1-4.5-1.7-4.5-4.7c0-1.2,0.2-2.9,0.6-5.2l2.9-18.2
		c0,0,8.1-50.8,8.3-51.8c10.1-1.5,14.7-2.9,22.8-6.1c0.3,1.5,3,14.8,3,14.8l8,38.8l6.4,30.1l4.3,20.5c0,0,0,1.2,0,1.2
		c-0.1,0.1-0.5,1-1.1,0.7c0,0-13.5-5.5-13.5-5.5v36.7l34.9,15.3c11.2,5.1,25.5,12.2,29.7,14.4l0,0l0.7,0.3c0.1,0,0.1,0,0.1,0.1
		c0.2,0.1,0.5,0.3,0.6,0.3v0c2.1,1.2,6.3,3.4,15.3,8.1l1.1,0.6v-39.5L922.1,561.4z M378.1,428.4c0,10.7-0.1,23.4-9.6,24.3
		c-3.5,0.3-6.4-0.4-8.6-2.4c-4.1-3.6-4.8-10.3-4.9-14.1V299.5c0-2.5,0.4-2.5,1.6-2.5h12.9c3.3,0,6.9,0,6.9,0c0.6,0,1.7,0,1.7,2.5
		V428.4z M673.2,459.1c0,2.1-0.4,3.4-1.1,4.1c-0.8,0.8-2.2,1.1-4.1,1c0,0-10.5-1.7-11.1-1.8c-1.6-0.4-2.5-2.1-2.5-6V301.1
		c0.1-1.8,0.9-3.8,2.4-4H669c1.1,0.1,4.3,0.2,4.3,6.6C673.2,304,673.2,459.1,673.2,459.1z M739.4,344.9c-1.6-4.8-8.7-25.8-16.1-47.8
		c0.6,0,11.9,0,11.9,0c1.4,0,4.2-0.1,4.2,7.4C739.4,304.5,739.4,337.5,739.4,344.9z M823,386.3c0.2-1.4,2.4-15.5,3.2-20.6
		c1.3,5,5.1,19.2,5.5,20.7C830.2,386.3,824.3,386.3,823,386.3z"/>
</g>
<g>
	<path class="st2" d="M456,515.7c-10.2,11-31.7,10.3-48,7.8c-22.6-3.6-42.9-12.6-74.9-29.2l-20.9-10.1c-9.8-4.4-20.3-8.2-31.9-11.7
		c12.9-21.4,20-55.4,20-96.6c0-31-5-58-14.5-77.9c-10.3-21.8-25.6-33.7-43.1-33.7h-1.4c-33.5,0-57.8,48.6-57.8,115.7
		c0,41.4,7.6,75.3,21.5,96.1c-2.7,1.2-5.1,2.6-7.4,4.1l0.1,0.1c-0.9,0.5-2,1.3-3.5,2.4l-1.4,1c-8-36.1-18.9-88.4-29.3-141.2
		c-3.3-16.6-11.9-63.3-18.3-97.4c-3.9-21.1-6.2-33.2-6.4-34.3l-0.7-3.1H120l-0.5,2.6c-0.2,1.1-21.5,108.5-37.5,197.4L59.2,529
		l-1,4.9c-2.4,12.1-3.7,18.7-10.4,23.2l-5.2,3l-5,2.6v31.2l40.3-19.5l27.5-12.1l6.9-2.8l-0.5-30.1l-11.9,4.7c-1,0.4-3.7,1.4-5.4,1.9
		c1.1-14.9,10.7-71.2,16.7-106.9c7.7-1.2,16.5-3.6,24.8-6.7c2.2,12,8.7,47.7,8.7,47.7l6.9,38.4c0,0.7,0.1,2.3,0.1,2.3
		c0,3.1-0.7,3.5-2.3,4.2c-0.7,0.3-8.4,3.1-8.4,3.1l-2.8,1l1.9,29.2l13.2-4.7l28.8-9.8l29.2-9l0-0.1c1.3-0.3,3-0.8,5.5-1.5l3.2-0.8
		l-1.6-23.2c12.2-1.9,28.3-0.7,44,6c17.5,7.4,26.4,12.5,37.8,18.9l0-0.1c2.1,1.2,9.6,5.3,39,21c38.6,19.5,71.9,24.7,98.9,15.4
		c27.7-9.5,38.2-31.2,38.7-32.1l2.5-5.2L464,505.8L456,515.7z M257,373.4l-0.1,9.9c-0.3,18.4-1.3,74-12.7,86.5l-1.3,1
		c-0.3,0.1-0.7,0.2-1.2,0.4c-0.1,0-0.2,0-0.4,0c-2.7-0.8-15.2-19.4-14.2-95.1c0.9-61.8,8.5-79.2,13.1-84.1c1.1-1.2,1.6-1.2,2-1.2
		c0.2,0,0.5-0.2,1.7,1.3C250,298.9,257,324.4,257,373.4z M130.1,389.7c-3.9,0.2-8,0.3-12.1,0.1c1-5.4,3-16.1,4.9-26.3
		c0.4-2.4,0.9-4.7,1.3-6.9C126.3,368.4,129,383.1,130.1,389.7z"/>
	<path class="st2" d="M911,556.7c-1.9-1.5-6.2-12.4-9.4-25.5c-11.5-62.3-55.4-271.8-66.1-315.7l-0.1,0c-0.2-1.2-0.6-2.8-1.1-5.1
		l-0.7-3h-17.8l-1.9,8.1c-8.4,36.1-17.7,87.8-26.6,137.7L787,355c-0.1,0.7-11.2,60.4-21.2,111V298.2c-0.1-3.2,0.1-4.8,0.3-5.4
		c0.8,0,3.5,0,13.2,0l3.2,0v-25.6h-65.2v27.8h17.1l0.5,0c0.1,0,0.2,0,0.3,0c0.1,0.3,0.2,1,0.2,2.1l0,54.9
		c-9.8-29.4-27.6-82.6-27.6-82.6l-0.7-2.2h-50.3h-2.1h-60.5l-0.3-5.2l-24,1.8l0.1,3.1c0,0,0,0.1,0,0.3c-14.1,0-68.2,0-68.2,0l-3.2,0
		v25.5l13.5,0c1.5,0.1,2.5,3.5,2.5,8.9v42.8c-4.3,1.7-7.9,3.6-10.9,5.6l-5.4,3.6l7.5,24.6l8.8-5.2v73c0,0,0,0,0,0
		c-0.5-0.8-1.2-2.2-1.8-4.4l-0.1,0c-0.2-1-0.5-2.3-1-4.1c-2.1-8.3-7-27-10.3-40.1c-10.2-40.7-25.6-102.1-32.3-124.2l-2.2-7.5h-21
		l-5.6,23.8c-12.4,52.3-27.9,117.4-34.4,156.4c-0.6,1.7-1.1,2.3-3.4,2.9l0,0c-0.1,0-0.2,0-0.3,0.1c2.6-6.4,3.9-13.3,3.9-20.5
		l0-135.7h14.5l0-25.5l-132.6-0.1v25.6l16.2,0l0,131.6c0.7,35,20.7,56.7,52.2,56.7c13.8,0,27.1-6.2,36.6-17c0.1-0.1,0.2-0.2,0.3-0.3
		v11.4l29.4-2.2l28.8-1.3V447l-12.4,0.2c0.5-2.7,1.4-8.6,3.5-21.6l1.7-9.6c0,0,0.5-2.9,0.9-5.2c5.1-0.7,10.5-1.8,15.5-3.2l0,0
		c3.9,17,6.5,29.3,8.3,39.1c-3.3,0.1-7.5,0.1-7.5,0.1l-3.2,0.1v24.6l4-0.2c9.8-0.1,35.1-0.2,59.3,0.8c24.3,1.1,45.2,2.8,48.4,3.1
		l4.8,1.9v-26l-3-0.2c0,0-10.4-0.8-11.8-0.9c-1.3-0.1-3.7-0.5-4.9-0.7c-0.7-0.3-1.2-1-1.3-5.2c0,0,0.1-51.9,0.1-65.6
		c7.7-1.4,19.3-5.1,27.2-14.9l2.6-3.2l-4.4-21.3l-10.4,5.9c-1.7,0.9-5,2.1-6.3,1.9l-6.1-1.5c0,0-1.3-0.4-2.6-0.7v-48.7
		c6.4,0.4,10.2,1.2,12.6,1.9c1.5,3.4,5,13.8,8.5,28.8l2.2,9.7l21.5-3.4l-2.7-40.3h9c0,0.2,0,0.5,0,0.8l0,160.1c0,0.1,0,0.1,0,0.2
		c-2-0.3-5.2-0.7-10-1.2l-4.4-0.5v25.4l34.1,4.5l30.1,4.9v0l30.8,6.2l35.5,8.2l0-25.3l-11.2-3.7c-5.3-1.8-6.8-3.8-7.7-7.2
		c-0.1-0.6-0.2-2.1-0.6-5.8v-78.3c12.3,35.6,38,110,38,110c0.3,0.8,0.6,1.6,1,2.3l-2.3-0.6v28.7l6.3,2.1h0.1c2,0.6,10.3,3,10.3,3
		l17.1,5.2l38.5,12.7v-29.2l-11.9-4.5c-2-0.7-2.5-3.9-2.5-5.7c0-0.4,0-0.8,0.1-1.3c0.4-3.5,7.6-51,12-78.2c9.3-1.3,18-4.1,23.9-6.2
		c2.9,14,13,62.7,13,62.7c4.7,22.6,8.6,41.1,10.2,50c-3.9-1.6-9.3-3.8-9.4-3.8l-5.5-2.1V556l37.1,15.9l29.5,14c0.4,0.2,8.2,4,8.2,4
		l4.6,2.2V561L911,556.7z M373.1,428.1c0,7.7-2.2,14.2-6.2,18.5c-2.4,2.6-4.9,3.8-6.2,3.8c0,0,0,0,0,0
		c-11.8-0.3-13.5-18.5-13.6-26.3V292.7h26.1L373.1,428.1z M453.8,376.6c-0.9-0.1-1.9-0.3-2.8-0.4c0.3-1.8,0.8-4.1,1.3-6.7
		C452.8,372.2,453.3,374.7,453.8,376.6z M911,556.7L911,556.7C911,556.7,911,556.7,911,556.7L911,556.7z M825.2,386.1
		c-3.4,0.1-7,0.1-10.6-0.1c1-5.9,3.1-18,4.8-28.4C821.6,367.9,824,379.9,825.2,386.1z M646.3,459.2c-0.1-0.2-0.2-0.6-0.2-1.2
		l0-164.6c0-0.3,0.1-0.6,0.2-0.9h8.5l13.6,0c0.2,0.3,0.5,1.3,0.5,3.3l0,164.8c0,0.4-0.1,0.8-0.4,1c-0.4,0.4-1.2,0.5-1.7,0.5
		l-7.7-1.1l-4.5-0.5l0,0.6C652.4,460.1,648.6,459.4,646.3,459.2z"/>
</g>
<path class="st3" d="M210.1,504.8c0,0-5.1,1.2-8.4,1.8c-7.6,1.7-12.4,0-14-6.3c-8.6-37.7-21.1-98.5-32.5-156.3
	c-9.7-49.4-19.2-107.5-23.5-126.3l-0.3-1.5h-4.1l-0.4,1.6c-11.3,49.1-57.9,306.5-59,312.9c-3.2,18.4-4.1,27.9-16.3,34.7
	c-2.1,1.2-5.1,2.9-5.1,2.9v11.3l2.8-1.4c10-5.1,20.4-9.8,28.3-13.4c14.9-6.8,24.7-10.8,24.9-10.9l1.1-0.4l-0.2-11.3
	c0,0-5.5,2.3-8.8,2.7c-8.1,0.7-9.1-4.9-9-6.9c0.6-13.5,11.8-78.3,18.3-116.9c13.8-0.9,29.7-6.6,38.9-11c7.9,44,15.3,82.7,17.7,97.3
	c0.1,1.2,0.2,2.3,0.2,3.3c0,5-1.5,9.6-6.8,12.1c0,0-6.3,2.3-6.3,2.3l0.7,10.9c0,0,21-7.5,31.1-10.6c15.6-4.9,31.6-9.8,31.6-9.8
	L210.1,504.8 M107.7,397.6c0.3-1.9,0.5-3,0.5-3.1c0,0,13.8-74,16-86.3c3,16.4,9.4,51.9,16,89.1C130.2,399.1,117,398.9,107.7,397.6
	 M578.9,275.9h-71.6v8.1c0,0,4.3,0,5,0c6.5,0.2,11,5.2,11,17.6v49c0,0-8,2.2-14.8,6.7l2.4,7.8c2.1-1.7,6.7-2.1,8.9-0.3
	c1.3,1.1,3.5,3.6,3.5,3.6l0,74.4l0,2.3c-0.2,3.4,0.2,8.2-4.4,10.2c0,0-1.6,0.7-4,0.6c-2.8-0.2-7.3-1.6-10.4-11.7
	c0,0-5.9-22.1-5.9-22.1c-11.5-45.6-30.3-121.4-37.8-146.3l-0.4-1.4h-7.6l-0.4,1.5c-13.1,55.5-31.2,130.2-38.1,172.2
	c-1.5,4.7-3.8,7.7-9.6,9l-3.3,0.7v7.7c6.1-0.6,13.2-1,19.8-1.4c11.5-0.7,21.4-1.1,21.4-1.1v-7.6l-6.4,0.3c-2.4,0.1-7.2-2.2-6.3-7.4
	c1.5-10.8,3.3-20.3,5.8-34.8c0,0,1.5-8.6,1.9-10.9c9.5-0.5,21.3-3.1,29.3-6.5c5.1,22.2,9,39.2,11.5,53.5c0.3,2.5-1,4.5-5.8,4.9
	l-3.9,0.2h-1.8v7.9c12.4-0.2,30.7-0.2,48.2,0.4c26.3,1.1,50.9,3,50.9,3v-7.8l-6.6-0.5c-2.4-0.2-6.3-0.6-7.2-0.9
	c-5.1-2.1-7-5.1-7.2-12.8l0.1-73.4c0,0,19,0,29.1-12.7l-1.1-5.5c0,0-6.5,3.7-12.1,2.9c-5.4-0.8-8.4-2.6-15.9-4c0-22.3,0-61.7,0-64.4
	c5.6,0,18.9,0.1,26.5,3.5c2.7,1.1,8.2,18.8,11.7,34.2l0.4,1.7l5.7-0.9l-3.6-54.1l-7,0.5L578.9,275.9 M440.8,383.3
	c2.3-12.9,5.1-27,7.8-40.7c0,0,1.8-9.3,3.3-16.8c1.7,7.8,3.8,17.8,3.8,17.8s8.1,38.2,9,42.4C458.1,386.4,450.4,385.5,440.8,383.3
	 M352.8,284.1v-8.2h-56.3v8.2c0,0,9.1,0,9.4,0c3.4,0.1,6.8,2.6,6.8,8.5v131.8c0.7,30.1,16.9,48,43.5,48c11.2,0,22.2-5.1,30.1-14
	c7.1-8.1,11-18.7,11-29.8c0-0.1,0-136.4,0-136.4c-0.1-3.7,1.4-7.6,6.5-8c0.5,0,7.9,0,7.9,0v-8.1h-43.5l0,8h6.5
	c3.4,0,7.2,2.4,7.2,8.1l0,136.1c-0.1,9.8-3,18.5-8.5,24.4c-3.9,4.2-8.7,6.7-12.9,6.6c-13.6-0.4-21.6-13.1-22.1-34.8l0-132.4
	c0-5.4,2.7-7.6,6-7.8H352.8 M747,503.9v10.8l54.6,17.3v-10.8c0,0-7-2.4-7.5-2.6c-4.9-2.6-7.6-7-7-14c1.3-9.1,6.4-45.6,13.4-87.1
	c13.1-0.8,28.3-5.9,37.9-10.3c11.6,57.3,24.4,115.1,26.2,127.2c0.6,3.1-0.6,5-1.3,5.7c-1.2,1.4-3.6,2.9-7.4,1.5
	c-0.4-0.2-6.7-2.7-6.7-2.7v11.2c6.5,2.7,17.4,7,28.2,12c16.3,7.5,33.5,15.8,33.5,15.8v-11.6c0,0-1.6-0.6-4.5-2.1
	c-6.1-3.1-11.5-21.3-13.3-31.3c-11.1-60.1-55-270.2-66-315.4l-0.4-1.4h-4l-0.3,1.4c-13.1,56.5-28.7,153-40.9,216.4l-13.1,64.6
	c-2.3,8-10.9,8.1-14.8,7C752,505.1,750.2,504.8,747,503.9 M804.5,393.9c5.6-32.9,11.1-65.6,14.3-83.4c3.5,16.6,9.9,48.9,16.9,83.5
	C825.6,395.4,813.2,395.1,804.5,393.9 M205.2,493.7c13.9-5.4,37.7-6.4,60.7,3.4c31,13.2,35,18.7,77.3,40.1
	c96.8,49,125.8-12.7,125.8-12.7l-4.6-5.2c0,0-0.5,0.6-1.1,1.5c-0.9,0.5-11.3,18.4-56.5,11.3c-23.8-3.7-44.8-13-77.5-30
	c-6.2-3.2-13-6.5-20.5-9.9c-10.5-4.7-22-8.9-35.2-12.6l-2.1-0.6c-1.8-0.5-3.6-1-5.4-1.4c16.1-17.6,25.7-53.7,25.7-101.6
	c0-60.6-20.1-103-48.9-103h-1.4c-28,0-49.1,46-49.1,107c0,47.5,10.3,83.7,27.1,100l-0.1,0l-1.9,0.6c-5.2,1.6-10.4,3.6-14.7,6.6
	l-0.9,0.6l1.5,6.9C203.5,494.5,204.5,494,205.2,493.7 M243.5,479.7c-0.8,0.1-1.6,0.2-2.5,0.1h0c-14.7-0.5-23.3-40.4-22.5-104
	c0.7-49.3,5.8-79.6,15.4-89.9c2.6-2.8,5.4-4.1,8.6-4c3,0,5.6,1.4,8.1,4.3c10.3,11.8,15.9,48.1,15.1,97.2c-1,53.9-5.7,82.4-15.2,92.5
	c-1.1,1.1-2.2,1.9-3.4,2.6C247.1,478.5,245.2,479.3,243.5,479.7 M707.2,480.3c-7.7-2.6-11.8-6.4-13.6-13.5c0,0-0.7-3.6-0.7-7.4
	V329.4L747.8,488c1.1,3.1,2.3,3,4.9,3.8c5.3,1.5,4.4-1.2,4.4-7c0-1.3,0-186.6,0-186.6c-0.2-9.1,1.7-14.2,8.9-14.2c0.7,0,7.8,0,7.8,0
	v-8.1h-47.8v8.1c0,0,7.9,0,8.4,0c4.9,0,9.7,3,9.7,13v3.8l0,104.7c-3-8.9-7.6-22.7-12.4-37.1c-10.6-31.8-30.7-92.4-30.7-92.4h-37.6
	v7.9c0,0,4.3,0,5.2,0c5.7,0.3,9,4.5,8.9,12.5c0,0,0,159.8,0,164.5c0,7.9-5.7,11.2-9.9,10.9c-1.6-0.1-2.5-0.2-4.2-0.4v7.9
	c8.9,1.6,17.1,3.3,24.2,4.8c15,3.3,24.7,5.6,24.7,5.6v-7.9C712.3,481.9,710,481.3,707.2,480.3 M648,476.6v-7.9l-3.6-0.5
	c-3.3-0.6-7.1-3.9-7.1-9.5V293.3c0-5.1,2.5-9,7.1-9.4c1.9,0-1.1,0,3.6,0v-8H602v8h4.8c3.5,0.1,6.8,3.3,6.8,9.4c0,1.1,0,19.3,0,19.3
	s0,141.1,0,141.5c-0.3,3.6-1.4,7.6-8.1,8.2c-1.5-0.1-6.4-0.6-6.4-0.6v7.8C619.9,472,648,476.6,648,476.6z"/>
<linearGradient id="SVGID_00000173867465472242595850000010879878285447808928_" gradientUnits="userSpaceOnUse" x1="149.6507" y1="155.3294" x2="811.0104" y2="155.3294">
	<stop  offset="0" style="stop-color:#6ACFF6"/>
	<stop  offset="0.6191" style="stop-color:#6ACFF6"/>
	<stop  offset="0.7123" style="stop-color:#ADE4FA"/>
	<stop  offset="0.8017" style="stop-color:#D8F2FD"/>
	<stop  offset="0.9" style="stop-color:#F2FAFF"/>
	<stop  offset="1" style="stop-color:#F8FCFF"/>
</linearGradient>
<path style="fill:url(#SVGID_00000173867465472242595850000010879878285447808928_);" d="M809,211.9c-58.6-29.6-85.4-81.7-86.5-83
	c-1.7-2.1-3.7-3.1-3.7-3.1c-1.3-0.9-2.9-0.8-4.2,0.1c-6,4.5-22.2,24.5-37.3,43.5c0,0-0.3,0.3-0.3,0.4c-3.9-8.6-9.3-21.6-15.2-35.5
	c-9.7-23.2-20.7-49.5-26.8-60.6c0.1,0.2-2.7-5.6-2.7-5.6c-1.8-3.6-5.4-3.9-5.4-3.9c-2.6,0-5.4,2.1-6.8,4.1
	c-13.5,21.6-35.3,41.9-56.3,61.6c-8.3,8.9-23.1,23.6-31.3,33.2c-7.5-8.5-9.2-8.3-15.3-15.4c-22.7,12.7-10.5,5.6-38.6,22.4
	c-1.5-4.4-19.5-38.8-22.2-43.4l0,0c-4.5-7.4-9.5-15.9-12.6-22.2c-0.5-1-1.4-1.7-2.5-1.9c-1.1-0.3-2.2,0.1-3,0.7
	c-10.2,8.5-23.2,20.6-34.7,31.2c-8.5,7.8-17.8,16.4-22.4,20.2c-2.9-6.1-26-55.7-26-55.7c-0.1-0.2-3.7-5.9-4.7-7.1
	c-1-1.2-3.1-1.9-3.1-1.9c-0.9-0.1-3.7-0.6-10.5,4.5c-13.6,10.6-25,22.1-36.1,33.1c-9.2,9.2-18.6,18.7-29.2,27.6
	c-19.2,16.1-69.3,54.2-118.5,59.1c-1.1,0.1-2.1,0.7-2.7,1.6c-0.6,0.9-0.8,2-0.5,3.1l7.4,24.4c0.5,1.6,2,2.7,3.7,2.5l9.6-0.5
	c26.4-1.4,66.3-3.4,95.1-28.9c9.5-8.4,18.2-17,26.6-25.4c12.4-12.3,24.1-23.9,38.4-35c2.2-1.7,3.8-2.5,4.7-2.8
	c0.3,0.3,0.6,0.7,0.9,0.8c29,55.4,32.7,65.6,33,67.4c0.2,1.4,1.2,2.8,2.6,3.2c1.4,0.4,2.9,0.2,3.8-0.9c19.6-23.9,33.2-38.8,53.3-56
	c3.6,7.4,31,63.3,31,63.3c0.5,1.1,1.5,1.8,2.7,2c1.2,0.2,2.4-0.2,3.2-1.1c0.3-0.3,25.5-26.3,49.3-39.5c5.7,7.5,18.4,20.3,20.1,22
	c0.7,0.7,1.7,1.1,2.7,1.1c1,0,2-0.5,2.6-1.3c0.4-0.5,42.5-49.2,74.6-78.5c0,0,0.4-0.3,0.8-0.6c0.4,0.9,2.1,4.6,2.1,4.6
	c10.4,18.7,50.5,95.9,50.9,96.7c0.8,1.6,2.8,2.4,4.5,1.7c2.5-0.9,4.4-4,12.5-17.7c7.1-12.1,21.3-36.1,28.8-39.7
	c38.5,57.2,71.6,58.3,84.2,58.8l3.5,0.2c1.8,0.1,4-1,4.4-2.8l4.3-21.3c0.1-0.2,0.1-0.5,0.1-0.7C811,213.8,810.3,212.5,809,211.9z"/>
<linearGradient id="SVGID_00000104672074444004459620000009960612212205071243_" gradientUnits="userSpaceOnUse" x1="473.1751" y1="99.9343" x2="534.6023" y2="161.3615">
	<stop  offset="5.586592e-02" style="stop-color:#EC5E26"/>
	<stop  offset="0.4106" style="stop-color:#F3956B"/>
	<stop  offset="0.8659" style="stop-color:#FACAAE"/>
</linearGradient>
<path style="fill:url(#SVGID_00000104672074444004459620000009960612212205071243_);" d="M478.7,170.4c28.1-16.8,15.9-9.7,38.6-22.4
	c6.1,7.1,7.8,6.9,15.3,15.4c11.7-13.3,23.3-24.8,23.3-24.8c0-27.9-22.4-50.1-50.3-50.1c-24.1,0-43.7,16.4-48.8,38.9
	C456.8,127.3,477.2,166,478.7,170.4z"/>
</svg>
