<?xml version="1.0" encoding="utf-8"?>
<!-- Generator: Adobe Illustrator 19.2.1, SVG Export Plug-In . SVG Version: 6.00 Build 0)  -->
<svg version="1.1" id="layer" xmlns="http://www.w3.org/2000/svg" xmlns:xlink="http://www.w3.org/1999/xlink" x="0px" y="0px"
	 viewBox="0 0 652 652" style="enable-background:new 0 0 652 652;" xml:space="preserve">
<style type="text/css">
	.st0{fill:#8A2432;}
</style>
<g id="Diet_Dr_Pepper_Square_Logo">
	<g id="back_logo_4_">
		<g id="DDP_logo_3_">
			<g>
				<g>
					<g>
						<g>
							<path class="st0" d="M413.5,301.5c1.5-0.6,2.8,0.5,2.9,2.3c0.1,1.8-1.1,3.7-2.6,4.3c-1.5,0.5-2.9-0.5-2.9-2.3
								C410.8,304,411.9,302.1,413.5,301.5"/>
							<path class="st0" d="M381,291.3l0.3,5.6c-0.8-0.4-2.3-0.3-3.5,0.1l-4.8,1.6c0,0.7,0.3,6.3,0.4,7c1.6-0.6,2.3-0.8,3.3-1.3
								c0.7-0.3,2.1-1.2,2.5-1.8l0.4,6.6c-0.5-0.2-1.3-0.6-2.6-0.3c-1.1,0.3-1.7,0.5-3.3,1.1l0.4,7.1l5.5-2c1.6-0.8,2.8-1.9,3.2-2.4
								l0.3,5.9l-15.5,5.6c0.4-0.9,0.8-2.5,0.7-5.1c0,0-0.5-12.9-1-19.1c-0.1-1.5-0.6-2.8-1.1-3.5L381,291.3z"/>
							<path class="st0" d="M385.2,311.9c0.9,0.9,3.8,1.2,5.4,0.6c1.2-0.4,1.9-1.5,1.8-2.3c-0.1-1.3-0.9-2.1-3.3-2.6
								c-2.7-0.6-4.4-1.6-4.5-4.3c-0.2-4.1,3-6.9,7-7.9c1.3-0.3,3.2-0.3,4.1-0.3l0.2,4.3c-0.9-0.4-2.9-0.6-4.1-0.2
								c-1.3,0.5-2,1.3-1.8,2.4c0.2,0.9,1.6,1.3,4.4,2c2.2,0.6,3.1,1.9,3.2,3.9c0.2,4.3-2.6,7.1-6.8,8.5c-1.5,0.5-4.7,0.9-5.4,0.8
								L385.2,311.9z"/>
							<path class="st0" d="M405.2,287.6c0,1.2-0.1,1,0.1,3.4l1.2-0.4c1.4-0.6,2.3-1.3,2.3-1.3l0.2,4.3l-3.4,1.2l0.5,9.4
								c0.1,2,1.4,2.6,2.9,2.2l0.1,2.8c-1.1,0.8-2.4,1.6-3.5,2c-1.5,0.5-2.7,0.3-3.6-0.6c-0.7-0.7-1.1-2.2-1.2-4.2l-0.5-9.8
								l-2.4,0.8l3.3-8.1L405.2,287.6z"/>
							<path class="st0" d="M428.4,302.4l-8.1,2.9c0,0,1.2-2.3,1-4.7l-0.7-13.6c-0.1-2.9-1.9-3.5-2.5-3.9c0.3-0.1,7.3-6.3,7.3-6.3
								l1.1,22C426.8,301.6,428.4,302.4,428.4,302.4"/>
							<path class="st0" d="M451,279.6c-1.2-1-1.8-2.1-1.9-3.8c-0.2-3.3,2.2-7.8,7.4-9.6c4-1.4,7.3-0.3,7.5,3.8
								c0.1,2.4-1.7,4.7-3.2,6.3c0,0,1.1,0.3,1.7,0.6c1.8,1.1,2.9,2.4,3,4.8c0.2,3.4-2.3,8.8-8,10.9c-4.5,1.6-8.4,0.1-8.6-4.2
								c-0.1-3,2.2-6.4,3.9-7.9C452.6,280.5,451.8,280.2,451,279.6 M453.8,287.2c0.1,2,1.7,2.7,3.3,2.1c1.7-0.6,2.9-2.3,2.8-4
								c-0.1-1.9-1.3-2.7-3.8-3.5C454.5,283.8,453.8,285.8,453.8,287.2 M459.1,271c-0.1-1.7-1.3-2.3-2.5-1.9
								c-1.4,0.5-2.3,1.8-2.2,3.4c0.1,1.5,1.6,2.5,3,2.9C458.7,273.5,459.1,272.1,459.1,271"/>
							<path class="st0" d="M432,286.4c-1.2-1.1-1.9-2.1-1.9-3.8c-0.2-3.4,2.2-7.8,7.4-9.6c4-1.4,7.3-0.3,7.5,3.8
								c0.1,2.4-1.7,4.7-3.2,6.3c0,0,1.1,0.3,1.7,0.6c1.8,1.1,2.8,2.4,3,4.7c0.2,3.4-2.2,8.8-8,10.9c-4.5,1.6-8.4,0.1-8.6-4.2
								c-0.2-3,2.2-6.5,3.9-7.9C433.6,287.3,432.7,287.1,432,286.4 M434.8,294c0.1,2,1.7,2.7,3.3,2.1c1.7-0.6,2.9-2.3,2.8-4
								c-0.1-1.9-1.3-2.6-3.8-3.5C435.4,290.7,434.7,292.7,434.8,294 M440,277.8c-0.1-1.7-1.3-2.3-2.5-1.9c-1.4,0.5-2.3,1.9-2.3,3.4
								c0.1,1.5,1.6,2.5,3,2.8C439.6,280.4,440.1,278.9,440,277.8"/>
							<path class="st0" d="M468.3,281.6c1.4,1.2,3.5,1.7,5.6,0.9c2.3-0.8,3.8-3.3,3.7-6.1c-0.1-2.6-1.7-3.5-3.6-2.8
								c-1.7,0.6-2.6,2.2-3,2.9l-2.4-0.7l-0.4-13.4l10-3.6c1.4-0.5,2.5-1.1,3-1.6l0.1,5.7l-8.9,3.2l0.1,5.1c0.9-0.9,2.3-1.9,3.9-2.4
								c4.8-1.7,7.1,1.5,7.3,5.1c0.3,5.5-3.9,10.6-8.9,12.4c-2.6,0.9-4.7,0.7-6.3,0.5L468.3,281.6z"/>
						</g>
					</g>
					<g>
						<g>
							<path class="st0" d="M120.3,196l7.3,140.2c0.6,11.7-0.5,21.9-6,33.8c3.8-1.4,41.3-14.6,50.3-18c-6.6-6-7.9-14.7-8.2-21.4
								l-3.3-63.2c11.5-1.4,29.3-9,40-16.3c30.5-21,38.7-44.4,36.6-69.5c-2.5-29.8-24.5-54.8-59-52.9c-10.5,0.6-22,3.5-34.7,8.8
								c-43,18.2-82.9,63.6-84.4,121c-0.9,33.7,13.7,68.6,36.3,86.3c6.8,5.3,12.3,7.6,14.3,8.1c-31.4-26.1-35.7-66.8-33.2-89.7
								c6-56.3,47.1-90.5,74.9-99.2c25.9-8.1,49.4,0.3,50.9,29c1.5,28.1-14.7,46.1-30.3,53.5c-4.4,2-8.9,3.4-12.3,3.9l-4.1-78.1
								C143,176.6,125.1,189.7,120.3,196"/>
							<path class="st0" d="M396.2,226.4c0.4,24.2,16.8,40.8,39.7,34.3c15.2-4.3,29.8-19.6,35.1-31.2c0.4,7.5-1.9,13.6-3.9,17.5
								c2.6-0.9,26.4-9.6,30.2-11c-3.6-4.5-4.4-11.2-4.8-17.9c-0.1-2.2-0.7-12.5-1.3-24c0-11.8,3.9-18.5,7.3-20.8
								c3.9-2.5,9.5-1.6,10.8,3.4c0.8,3.1-0.2,7.3-3.7,9.7c11.3,3,23-4.9,21.8-19.5c-1-13.2-12.4-18.6-21.7-15.7
								c-7.1,2.2-13.5,8.6-15.8,17.7c-0.3-6.4-0.5-10.7-0.5-10.7l-27.4,10c2.6,2,4.9,6,5.2,12.4l1.5,29.2
								c-3.6,14.1-16.6,29.8-27.7,32.3c-10.6,2.4-17.7-1.9-21.1-10c7.4,0.8,13.2,0,19.1-2.3c11.5-4.5,21.3-17.7,19.8-33.6
								c-1.5-15.6-14.9-23-30.3-18.1C406.8,185.1,395.9,205,396.2,226.4 M428,192c7.3-1.4,9.5,5.6,9.5,10.3
								c0.1,6.5-2.5,13.4-9.6,17.3c-3.3,1.8-7,2.1-10.2,2C415.6,202.9,422.3,193.1,428,192"/>
							<path class="st0" d="M296.3,307.9c15.6-10.3,23.3-31.5,22.2-52.1c-1.3-24.5-16.9-30.7-27.8-27c-6.9,2.3-13.4,5.5-17.9,13.8
								l-0.4-6.7l-28.1,10.2c2.5,2,4.8,6,5.2,12.4c0.1,2.4,0.8,16.6,1.6,32.4c-3.9,13.6-17.4,26.9-28.1,29.3
								c-10.6,2.4-17.7-1.9-21.1-10c7.4,0.8,13.2,0,19.1-2.3c11.5-4.6,21.3-17.7,19.8-33.6c-1.5-15.6-14.9-23-30.3-18.1
								c-21.9,7-32.8,26.9-32.4,48.2c0.5,24.2,16.8,40.8,39.7,34.3c15-4.3,30-17,34.5-27.4c1.4,28.3,1.6,32.2,1.6,32.7
								c0.2,4.5-0.5,16.1-3.3,21.8l32.1-11.7c-3.5-5.3-4.5-11.8-4.8-17.9l-1.1-20.9C283.3,313.9,290.9,311.5,296.3,307.9
								 M209.8,270.1c7.3-1.4,9.5,5.6,9.5,10.3c0.1,6.5-2.5,13.4-9.6,17.3c-3.3,1.8-7,2.1-10.2,2C197.4,281,204.1,271.2,209.8,270.1
								 M283.2,250.4c7.3-1.2,11.4,5,11.9,14c0.6,11.5-2.1,23.7-9.2,31c-2.5,2.6-6.6,4.7-10.1,5.7l-2.3-44.3
								C276.7,253.6,279.4,251.1,283.2,250.4"/>
							<path class="st0" d="M370.2,281.2c15.5-10.3,23.5-29.9,22.3-51.1c-1.5-25.8-16-31.6-27.9-27.7c-8.6,2.8-12.9,8.7-17.3,15.3
								l-0.4-8.5l-28.1,10.3c2.5,2,4.7,6,5,12.4l4.5,85.8c0.4,7.8-0.9,16.6-3.2,21.5c0,0,28.1-10.2,31.9-11.5
								c-3.5-5.3-4.5-11.8-4.8-17.9l-1.1-21.2C357.7,287.2,364.8,284.8,370.2,281.2 M358.1,223.7c7.3-1.2,10.8,6,11.3,14.9
								c0.6,11.6-1.7,22.8-9.2,30.2c-2.6,2.6-6.5,4.4-9.9,5.4L348,230C350.8,227.1,354.2,224.3,358.1,223.7"/>
							<path class="st0" d="M351.5,131.9l2.3,43.6c0.3,6.3,0.7,14.1-2.5,22.8c2.6-1,26.4-9.6,30.2-11c-3.6-4.5-4.5-11.2-4.8-17.9
								c-0.1-2.2-0.6-12.5-1.2-24c-0.7-12.8,3.5-17.9,7.3-20.8c3.7-2.8,9.5-1.6,10.8,3.4c0.8,3.1-0.2,7.3-3.7,9.7
								c11.3,3,23-4.9,21.9-19.5c-1-13.2-12.4-18.6-21.7-15.7c-7.1,2.2-13.5,8.6-15.8,17.7c-0.3-6.4-0.5-10.7-0.5-10.7l-27.4,10
								C348.9,121.5,351.2,125.5,351.5,131.9"/>
							<path class="st0" d="M243.1,133c0.4,7.3,3.9,73.9,4,76.9c0.4,6.5,1.6,15.8-4.3,26.9c5.4-1.8,42.5-14.9,52.2-18.8
								c27-11,48.1-37.3,46.1-77.1c-2-41.7-30.6-54.5-62.1-44.1c-8.4,2.8-38.1,13.9-44.7,16C239.1,116.1,242.4,121.6,243.1,133
								 M291.8,113.9c13.5,3.2,18.4,19.4,19,35.3c0.7,18.1-5.3,39.9-19.4,50.3c-4.2,3.1-10.2,5.8-14.5,7.1
								c-0.2-3.3-4.3-80.9-4.7-87.8C277.3,115.8,285,112.4,291.8,113.9"/>
							<g>
								<path class="st0" d="M517.7,230.5c-1.3,2.1-3,3.5-5.1,4.3c-2.2,0.8-4.2,0.7-6-0.3c-1.8-1-2.9-2.7-3.3-5
									c-0.4-2.4,0.1-4.7,1.4-6.9c1.3-2,3-3.4,5.1-4.2c2.2-0.8,4.2-0.7,6,0.4c1.8,1.1,2.9,2.7,3.3,5
									C519.5,226.1,519,228.3,517.7,230.5z M505.8,223.6c-1,1.8-1.4,3.6-1.1,5.4c0.3,1.9,1.2,3.3,2.7,4.1c1.5,0.9,3.1,1,4.9,0.3
									c1.8-0.6,3.2-1.9,4.2-3.6c1-1.8,1.4-3.6,1.1-5.5c-0.3-1.8-1.2-3.2-2.7-4c-1.5-0.9-3.1-1-4.9-0.4
									C508.3,220.5,506.8,221.7,505.8,223.6z M508.5,232.4l-1.6-9.1c0.5-0.2,1.3-0.5,2.4-0.9c1.1-0.4,1.7-0.6,1.8-0.6
									c0.7-0.2,1.3-0.2,1.8-0.1c0.8,0.2,1.3,0.7,1.5,1.8c0.1,0.8,0,1.4-0.3,1.9s-0.8,0.9-1.4,1.2c0.6-0.1,1-0.1,1.3,0.1
									c0.6,0.2,1,0.8,1.1,1.8l0.1,0.8c0,0.1,0,0.2,0.1,0.3c0,0.1,0.1,0.2,0.1,0.3l0.1,0.2l-2.2,0.8c-0.1-0.3-0.2-0.7-0.4-1.2
									c-0.1-0.5-0.2-0.9-0.3-1.1c-0.2-0.3-0.4-0.4-0.8-0.4c-0.2,0-0.5,0-0.8,0.1l-0.5,0.1l-0.5,0.2l0.6,3.3L508.5,232.4z
									 M511.4,223.6c-0.3,0-0.8,0.1-1.4,0.3l-0.6,0.2l0.4,2.7l0.9-0.3c0.5-0.2,0.9-0.5,1.2-0.8c0.3-0.3,0.4-0.8,0.3-1.3
									C512.3,223.9,512,223.6,511.4,223.6z"/>
							</g>
						</g>
					</g>
				</g>
				<path class="st0" d="M561.5,150.3c-12.6-31.9-36.2-57-75.3-72.4c-10.3-4.2-25.8-8.2-35.4-8.9c43.8,14.3,76.9,40.3,90.9,75.8
					c32.3,81.9-49,184-181.5,227.9c-66.6,22.1-133.5,25.3-187.7,12.6c5.7,4,19.4,7.2,29.7,9.2c52.3,10.1,115.1,4.5,177.8-16.3
					C512.5,334.2,593.7,232.2,561.5,150.3"/>
			</g>
			<g>
				<path class="st0" d="M339.6,385.8c-3.7,1.5-9.1,3.3-16.3,5c15.1,11,26.1,26.1,30.9,43.9c13.6,50.2-27.2,106.2-91.2,125.2
					c-1.9,0.6-3.8,1.1-5.7,1.6c0.5-0.1,0.9-0.2,1.4-0.3c-63,14.6-122.8-10.4-136.2-58.3c-11.8-42.3,16.5-88.9,65.4-113.9
					c-2.4-0.4-4.8-0.9-7.1-1.4c-50.7,25.3-81.3,70.1-71.7,112.3c11.9,52.8,81.9,81.3,156.5,63.8c74.5-17.5,125.3-74.5,113.4-127.3
					C374.2,415.1,359.9,397.8,339.6,385.8z"/>
			</g>
			<path class="st0" d="M183.7,460.3l2.5-0.7c12.4-3.8,19.1,0.6,19.1,21.5c0,19.2-6.7,29.5-17.6,32.8c-1.3,0.4-2.7,0.8-4,1
				L183.7,460.3L183.7,460.3z M271.2,500.9c9.9-2.3,20.5-10.2,24.1-16.8c0.4,1.7,1.1,3.1,1.9,4c2.3,2.5,5.9,2.8,9.8,1.7
				c2.9-0.9,6.5-2.8,9.3-4.7v-7.3c-3.9,0.8-7.3-0.8-7.3-6.1v-27.2l8.8-2.5l0.2-11.2c0,0-2.4,1.8-6.1,3.1l-3.1,1
				c0-6.3,0.1-5.7,0.3-8.8l-11.2,4.1l-9.7,20.4l6.4-1.6v23c-3.5,8.3-12.4,15.9-19.2,17c-7.1,1.2-11.7-1.9-13.7-7.4
				c4.9,0.8,8.8,0.5,12.8-0.8c7.8-2.6,14.8-11.1,14.3-21.7c-0.5-10.5-9.2-15.9-19.6-13.1c-14.8,3.9-22.8,16.7-23.3,31
				C245.5,492.8,255.8,504.4,271.2,500.9z M244.5,507.7c-1-0.9-2.5-5.4-2.5-9.4V465c0-5.5,1.3-9.1,2.2-10.9l-20.1,6
				c1.2,0.9,2.9,4,2.9,9.3v33.2c0,4.1-1.3,8.7-2.5,10.9L244.5,507.7z M260.5,474.2c-0.8-12.5,4-18.8,7.9-19.3c4.9-0.8,6.1,4,6,7.1
				c-0.2,4.3-2.2,8.9-7,11.2C265,474.3,262.5,474.4,260.5,474.2z M235.6,453.2c4.7-1.4,8.5-6.5,8.5-11.4s-3.8-7.7-8.5-6.3
				c-4.7,1.4-8.5,6.5-8.5,11.4C227.2,451.8,230.9,454.6,235.6,453.2z M188,524.4c9.5-2.9,19-8.6,22.9-13.4
				c8.4-10.3,11.2-22.1,11.2-34.8c0-12.7-3.4-23.1-11.3-27.5c-6.1-3.4-16.4-2.3-27.2,0.9l-20.8,6.1c2.5,1.6,4.2,5.5,4.3,10.5
				c0.3,14.3,0.1,37.7,0.1,53c0,5.7-2.6,10.8-3.7,12.4L188,524.4z"/>
		</g>
	</g>
</g>
</svg>
