<?xml version="1.0" encoding="utf-8"?>
<!-- Generator: Adobe Illustrator 26.5.0, SVG Export Plug-In . SVG Version: 6.00 Build 0)  -->
<svg version="1.0"
	 id="svg3116" xmlns:inkscape="http://www.inkscape.org/namespaces/inkscape" xmlns:sodipodi="http://sodipodi.sourceforge.net/DTD/sodipodi-0.dtd" xmlns:cc="http://creativecommons.org/ns#" xmlns:dc="http://purl.org/dc/elements/1.1/" xmlns:rdf="http://www.w3.org/1999/02/22-rdf-syntax-ns#" xmlns:svg="http://www.w3.org/2000/svg" inkscape:version="0.48.5 r10040"
	 xmlns="http://www.w3.org/2000/svg" xmlns:xlink="http://www.w3.org/1999/xlink" x="0px" y="0px" viewBox="0 0 1991 1390.7"
	 style="enable-background:new 0 0 1991 1390.7;" xml:space="preserve">
<style type="text/css">
	.st0{fill-rule:evenodd;clip-rule:evenodd;fill:#007BC1;}
	.st1{fill:#FFFFFF;}
	.st2{fill:#0063A8;}
	.st3{fill:#EE2F35;}
</style>
<rect id="rect3252" x="-38.8" y="-27.1" class="st0" width="2068.6" height="1444.9"/>
<g>
	<path class="st1" d="M1242.8,691c-0.6-6.1-2.2-12.7-3.9-18.7c-14.3-45.2-52.9-74.4-98.1-74.4c-4.4,0-9.4,0.6-13.8,1.1
		c-57.9,7.7-97.6,60.1-89.8,119.6c7.2,54,50.2,90.9,103.1,90.9c4.4,0,9.4-0.6,13.8-1.1c28.1-3.3,52.9-15.4,71.7-38.6
		c1.1-1.1,1.7-2.8,1.1-4.4c0-1.1-1.1-2.8-2.2-3.9c-3.3-2.2-14.3-7.7-20.4-10.5c-1.7-1.1-3.3-1.7-3.9-2.2c-1.7-1.1-3.3-1.1-4.4-1.1
		c-1.7,0-2.8,0.6-4.4,2.2c-12.1,13.8-27,20.9-42.4,23.1c-3.3,0.6-6.1,0.6-8.8,0.6c-28.1,0-56.8-18.7-65-44.6v-0.6l0.6-0.6
		c1.7-0.6,14.9-6.6,34.2-6.6c2.2,0,5,0,7.2,0.6c5.5,0.6,11,1.1,17.1,1.7c11,1.7,22,2.8,35.8,2.8c8.3,0,16-0.6,24.3-1.7
		c32-6.1,45.2-15.4,45.2-15.4c5-2.2,4.4-4.4,4.4-8.8C1243.9,698.2,1243.3,694.9,1242.8,691z M1208,687.2h-0.6
		c-5.5,1.7-12.7,3.3-21.5,4.4c-4.4,0.6-8.8,1.1-14.9,1.1c-9.4,0-19.8-0.6-29.2-1.7h-0.6c-9.4-0.6-17.6-1.1-25.9-1.1
		c-6.1,0-11.6,0.6-16.5,1.1c-15.4,1.7-27.6,6.6-27.6,6.6v-1.1c2.8-30.9,29.2-57.9,60.6-61.7c2.8-0.6,6.1-0.6,8.8-0.6
		c29.8,0,58.4,22.6,67.2,52.4v0.6H1208z"/>
	<path class="st1" d="M1743.8,605h-26.5c-2.8,0-5,2.2-5,5v189.6c0,2.8,2.2,5,5,5h26.5c2.8,0,5-2.2,5-5V610
		C1748.7,607.2,1746.5,605,1743.8,605z"/>
	<path class="st1" d="M1730.5,585.8c13.2,0,24.3-11,24.3-24.3c-0.6-13.2-11-24.3-24.3-24.3c-13.2,0-24.3,11-24.3,24.3
		C1706.3,574.7,1717.3,585.8,1730.5,585.8z"/>
	<path class="st1" d="M1377.2,597.9c-48,0-88.2,31.4-100.9,78.3c-2.2,7.7-4.4,28.1-4.4,48.5v148.8c0,2.8,2.2,5,5,5h26.5
		c2.8,0,5-2.2,5-5v-93.7l1.7,1.1c13.2,13.2,37.5,27.6,66.1,28.7l0,0c1.7,0,3.3,0,5,0c27.6,0,52.9-10.5,71.7-29.8
		c19.3-19.3,29.8-46.3,29.8-75C1482.5,644.7,1436.2,597.9,1377.2,597.9z M1378.9,775.4c-18.7,0-36.4-6.6-49.1-18.7
		c-13.2-12.7-20.4-30.3-20.4-50.2c0.6-40.2,30.9-72.2,67.8-72.2c38,0,67.2,30.9,67.2,71.1S1416.4,775.4,1378.9,775.4z"/>
	<path class="st1" d="M901.6,597.9c-48,0-88.2,31.4-100.9,78.3c-2.2,7.7-4.4,28.1-4.4,48.5v148.8c0,2.8,2.2,5,5,5h26.5
		c2.8,0,5-2.2,5-5v-93.7l1.1,1.1c13.8,13.2,38,27.6,66.7,28.7l0,0c1.7,0,3.3,0,5,0c27.6,0,52.9-10.5,71.7-29.8
		c19.3-19.3,29.8-46.3,29.8-75C1006.9,644.7,960.6,597.9,901.6,597.9z M903.2,775.4c-18.7,0-36.4-6.6-49.1-18.7
		c-13.2-12.7-20.4-30.3-20.4-50.2c0.6-40.2,30.9-72.2,67.8-72.2c38,0,67.2,30.9,67.2,71.1S940.7,775.4,903.2,775.4z"/>
	<path class="st1" d="M1620.3,691.6c-3.9-0.6-7.7-1.7-12.1-2.2c-9.9-1.7-19.8-3.9-29.2-6.6c-6.6-1.7-27.6-8.8-27.6-24.8
		c0-17.6,19.3-27,37.5-27c15.4,0,28.1,2.8,44.1,15.4c1.1,1.1,3.3,2.2,5,2.2s3.3-0.6,5-1.7c4.4-3.3,12.7-10.5,18.2-16
		c1.1-1.1,1.7-2.8,1.7-4.4c0-2.2-1.7-4.4-2.8-5c-21.5-17.1-42.4-24.3-72.2-24.3c-42.4,0-74.4,27-74.4,63.4
		c0,28.7,23.7,49.1,66.1,57.3l26.5,5c17.6,3.3,27.6,12.7,27,25.4s-16,25.9-41.3,25.9c-20.9,0-39.1-8.3-54.6-22
		c-1.1-1.1-2.2-2.2-4.4-2.2c-1.1,0-2.8,0.6-3.9,1.7c-1.7,1.1-19.3,15.4-21.5,17.1c-1.1,1.1-1.1,1.7-1.1,2.8c0,2.2,1.1,3.9,2.2,5l0,0
		c23.1,20.9,48,33.1,81,33.1h1.1c56.2-0.6,81.6-31.4,81.6-61.7C1672.1,705.9,1632.4,694.3,1620.3,691.6z"/>
</g>
<path id="path3012" inkscape:connector-curvature="0" class="st1" d="M641.8,870.8c-93.4,93.4-244.6,93.4-338,0s-93.4-244.6,0-338
	s244.6-93.4,338,0S735.2,777.4,641.8,870.8"/>
<g>
	<path id="path3014" inkscape:connector-curvature="0" class="st2" d="M664.9,577.5c4.5,15.1,7.3,30.8,7.3,47
		c0,53.2-26.3,99.7-66.1,129.4c-68.9,51-169.7,51-308.6,94.6c42,50.4,104.7,82.3,175.3,82.3c126.6,0,228.5-102.5,228.5-228.5
		C701.3,655.9,687.8,613.3,664.9,577.5"/>
	<path id="path3016" inkscape:connector-curvature="0" class="st3" d="M610,518.7c-38.1-28.6-85.7-45.9-137.2-45.9
		c-126.6,0-228.5,102.5-228.5,229c0,51,16.8,98,44.8,135.5C442.6,792.5,564.1,672.1,610,518.7"/>
</g>
<g id="g3028" transform="matrix(3.3219148,0,0,3.3219148,145.09771,282.06882)">
</g>
</svg>
