<?xml version="1.0" encoding="utf-8"?>
<!-- Generator: Adobe Illustrator 17.1.0, SVG Export Plug-In . SVG Version: 6.00 Build 0)  -->
<!DOCTYPE svg PUBLIC "-//W3C//DTD SVG 1.1//EN" "http://www.w3.org/Graphics/SVG/1.1/DTD/svg11.dtd" [
	<!ENTITY ns_flows "http://ns.adobe.com/Flows/1.0/">
	<!ENTITY ns_extend "http://ns.adobe.com/Extensibility/1.0/">
	<!ENTITY ns_ai "http://ns.adobe.com/AdobeIllustrator/10.0/">
	<!ENTITY ns_graphs "http://ns.adobe.com/Graphs/1.0/">
]>
<svg version="1.1" id="Ebene_1" xmlns:x="&ns_extend;" xmlns:i="&ns_ai;" xmlns:graph="&ns_graphs;"
	 xmlns="http://www.w3.org/2000/svg" xmlns:xlink="http://www.w3.org/1999/xlink" xmlns:a="http://ns.adobe.com/AdobeSVGViewerExtensions/3.0/"
	 x="0px" y="0px" viewBox="0 0 1000 400" style="enable-background:new 0 0 1000 400;" xml:space="preserve">
<g id="_x23_003767ff">
	<path style="fill:#003767;" d="M514.5,81.5699997c4.6099854-1.6100006,9.5900269,3.6900024,7.4299927,8.1699982
		c-1.5599976,4.0999985-7.5599976,5.0100021-10.3099976,1.6200027C508.6099854,88.2799988,510.3999939,82.6100006,514.5,81.5699997z
		"/>
	<path style="fill:#003767;" d="M493.3800049,82.0800018c2.8699951-0.0400009,5.7299805-0.0500031,8.6000061-0.0600052
		c0.0499878,15.3000031-0.1400146,30.6000061-0.2700195,45.9000015c0,8.8899994-3.1499939,17.9199982-9.6399841,24.1500092
		c-14.4500122,13.9899902-40.4900208,12.7399902-53.4400024-2.6900024c-8.4899902-9.5700073-9.25-25.0000076-1.5500183-35.2600021
		c12.5900269-17.6500015,42.1200256-19.6300049,56.230011-2.7700043
		C493.519989,101.5999985,493.3900146,91.8399963,493.3800049,82.0800018 M459.3800049,107.4899979
		c-7.3500061,1.7400055-14.3699951,6.5299988-17.2000122,13.7400055c-3.2200012,8.0999985-2.4700012,18.340004,3.6900024,24.8799973
		c10.1000061,11.0200043,29.0800171,11.9499969,40.1900024,1.9299927
		c6.1199951-5.7799988,9.5499878-14.9499969,7.1199951-23.2299957c-1.3599854-4.4300003-3.9899902-8.4799957-7.4299927-11.5899963
		C478.6300049,107.0400009,468.4100037,105.2799988,459.3800049,107.4899979z"/>
	<path style="fill:#003767;" d="M605.4400024,81.7900009c2.7700195-0.0200043,5.5499878,0,8.3300171,0.0299988
		C613.7600098,86,613.7399902,90.1800003,613.7999878,94.3600006c6.5900269,0.0800018,13.1900024,0.0299988,19.7900391,0.0400009
		c0,2.1699982,0.0099487,4.3399963,0.0299683,6.5100021c-6.6199951,0.0999985-13.2299805,0.0099945-19.8399658,0.0699997
		c-0.0300293,19.7599945-0.0200195,39.5100021,0,59.2699966c-2.7900391,0.0099945-5.5700073,0-8.3400269-0.0500031
		c0.0499878-19.7399902,0.0499878-39.4699936,0-59.2099991c-3.6300049-0.1100006-7.25-0.1199951-10.8699951-0.1399994
		c0.0800171-2.1800003,0.1699829-4.3499985,0.2700195-6.5199966c3.5299683-0.0100021,7.0599976,0.0299988,10.5999756-0.0200043
		C605.4899902,90.1399994,605.4699707,85.9599991,605.4400024,81.7900009z"/>
	<path style="fill:#003767;" d="M530.9899902,116.9800034c7.1600342-13.9700012,24.3200073-20.890007,39.4000244-18.1900024
		c7.9799805,1.5299988,16.0100098,5.1500015,21.0100098,11.7900009c3.7999878,5.0299988,7.1499634,10.9399948,6.9799805,17.4400024
		c0.0599976,2.9499969-2.2800293,5.4700012-5.0700073,6.1199951c-14.7000122,2.9499969-29.3900146-3.0399933-44.1300049-0.9400024
		c-4.2000122,0.4499969-8.2799683,1.6500092-12.210022,3.1600037C540.2999878,151.5099945,558.6099854,159.9299927,572.75,154.75
		c6.7999878-2.1699982,12.289978-7.2200012,15.7600098-13.3800049c3.0800171-0.0099945,6.1699829,0.0299988,9.2600098,0.0200043
		c-2.75,5.9700012-6.7600098,11.4499969-12.3600464,15.0200043c-15.3899536,10.4100037-38.6099854,8.519989-50.7299805-6.1100006
		C526.6400146,141.4400024,525.460022,127.4300003,530.9899902,116.9800034 M550.7299805,107.7399979
		c-7.9099731,3.8300018-13.3999634,11.8100052-14.3599854,20.5199966
		c6.0999756-1.5199966,12.2700195-3.0599976,18.6099854-2.9399948c12.1900024-0.4000015,24.0500488,4.359993,36.2700195,2.6899948
		c-0.75-5.1299973-3-9.9799957-6.4000244-13.8799973C576.7000122,104.5100021,561.8200073,101.8899994,550.7299805,107.7399979z"/>
	<path style="fill:#003767;" d="M512.3900146,101.2799988c2.8599854-0.0100021,5.7199707-0.0199966,8.5799561-0.0400009
		c0.0700073,19.7400055,0.0100098,39.4700089,0.0300293,59.2099991c-2.7399902-0.3399963-6.2199707,0.9000092-8.4799805-0.7099915
		C512.2399902,140.2599945,512.5200195,120.7600021,512.3900146,101.2799988z"/>
	<path style="fill:#003767;" d="M946.3300171,163.2400055c8.3999634-2.9700012,17.7399902,5.7399902,15.0599976,14.3099976
		c-1.8500366,8.3699951-13.6199951,11.9100037-19.6099854,5.6699982
		C935.2000122,177.5599976,937.8699951,165.4299927,946.3300171,163.2400055z"/>
	<path style="fill:#003767;" d="M452.5499878,208.5899963c22.9100037-18.4799957,58.1600037-18.019989,81.5900269-0.7399902
		c12.1400146,8.9399872,20.7299805,23.0099945,21.7600098,38.1899872
		c1.1499634,13.4799957-3.8000488,27.0900116-12.6199951,37.2400055
		C523.6599731,306.1600037,487.2600098,312,461.3800049,296.6400146
		c-4.6600037-2.6600037-8.5500183-6.3700256-12.3699951-10.0700073c-0.1199951,17.4100037,0,34.8200073-0.0599976,52.2299805
		c-5.7400208-0.0099792-11.4700012-0.0099792-17.210022,0.0100098c-0.0499878-27.9299927-0.0699768-55.8500061,0.0100098-83.7799988
		C431.9500122,237.6199951,438.75,219.7100067,452.5499878,208.5899963 M486.4299927,209.6799927
		c-12.1499939,1.4100037-23.8099976,7.8000031-30.8800049,17.8800049
		c-6.5599976,9.1000061-9.2599792,21.1399994-6.2599792,32.0599976c2.7299805,10.4400024,9.9700012,19.480011,19.3099976,24.8200073
		c10.2799988,5.9599915,22.7099915,7.4100037,34.3200073,5.5599976c9.9100037-1.5899963,19.4899597-6.2999878,26.0499573-14
		c8.8700562-10.1000061,11.8100586-24.8899994,7.7000122-37.6600037
		c-2.8099976-9.0800018-9.1699829-16.8600006-17.2000122-21.8499908
		C509.7000122,210.3999939,497.769989,208.3000031,486.4299927,209.6799927z"/>
	<path style="fill:#003767;" d="M597.0599976,203.0500031c16.7700195-9.1900024,37.2000122-10.6399994,55.4500122-5.4100037
		c11.9299927,3.4300079,22.5899658,10.9799957,29.6799927,21.1800079
		c5.6799927,8.0599976,9.4099731,17.4599915,11.0800171,27.1699982c0.5100098,2.8399963,0.4499512,6.3600006-2.1100464,8.2399902
		c-2.9699707,2.1800079-6.7599487,2.7200165-10.2599487,3.5099945c-16.7900391,3.1199951-33.8099976-0.0799866-50.5300293-2.0599976
		c-14.3499756-1.8699951-29.039978,0.4900208-42.4799805,5.6700134
		c3.5999756,10.7999878,11.7699585,19.9199829,22.1199951,24.6600037
		c20.1300049,9.6199951,46.7199707,3.6900024,60.1099854-14.3699951c6.1600342-0.0600281,12.3200073-0.1000061,18.4799805,0.039978
		c-4.75,11.7000122-14.75,20.5500183-25.8599854,26.1100159c-18.9599609,9.4799805-42.1599731,9.5799866-61.3699951,0.75
		c-11.5800171-5.2400208-21.710022-14.1800232-27.1400146-25.8000183
		c-6.6900024-13.0299988-7.289978-28.8799896-1.9799805-42.4799957C576.7800293,218.5,586.0800171,209,597.0599976,203.0500031
		 M598.3699951,221.3500061c-6.7399902,6.1399994-10.7399902,14.8399963-11.8499756,23.8299866
		c7.2699585-2.1399994,14.6599731-3.9899902,22.2299805-4.6099854c15.0700073-1.3900146,30.0599976,1.3099976,44.9799805,2.9799957
		c7.2900391,0.8099976,14.7800293,1.5800018,21.9700317-0.3099976c-2.1699829-9.3700104-7.1600342-18.1699982-14.6300049-24.2900085
		C643.2600098,204.7100067,615.0900269,205.9199982,598.3699951,221.3500061z"/>
	<path style="fill:#003767;" d="M727.539978,208.5800018c23.4200439-18.9600067,59.9000244-17.9700012,83.210022,0.6600037
		c11.9899902,9.5099945,19.960022,24.2899933,20.0999756,39.7200012
		c0.4000244,13.4600067-5.289978,26.6999969-14.5099487,36.3899994C796.539978,306.3699951,762,311.4400024,736.9899902,297.019989
		c-4.9099731-2.7399902-9.0700073-6.5699768-13.1400146-10.4100037
		c-0.1300049,17.4000244,0.2700195,34.8000183,0.1300049,52.2000122
		c-5.7999878-0.0100098-11.5999756-0.0299988-17.3999634,0.0100098c0.0199585-27.9299927,0.1099854-55.8600159,0.3200073-83.8000031
		C707.0700073,237.6399994,713.789978,219.7299957,727.539978,208.5800018 M761.4199829,209.6600037
		c-9.5700073,1.1299896-18.8800049,5.1999969-25.8399658,11.9299927
		c-8.4500122,8.0200043-13.4800415,19.8000031-12.5400391,31.5100098
		c0.9299927,12.5499878,8.5900269,24.1099854,19.2300415,30.6199951c11.75,7.2900085,26.5199585,8.6099854,39.7799683,5.3800049
		c11.9199829-2.8600159,22.6400146-11.0299988,27.6900024-22.3200073
		c6.6600342-14.1499939,3.8599854-32.1799927-7.0700073-43.4400024
		C792.3200073,212.2299957,776.2399902,207.8300018,761.4199829,209.6600037z"/>
	<path style="fill:#003767;" d="M852.4799805,207.4499969c6.6000366-7.1999969,16.2200317-10.8199921,25.7399902-12.0699921
		c13.6200562-1.6100006,28.0400391,0.3099976,39.9400024,7.4700012c-2.5299683,4.3699951-5.1199951,8.7099915-7.5899658,13.1100006
		c-9.7700195-5.9500122-21.6099854-8.3300018-32.8900146-6.4100037c-5.5499878,1.0800018-11.3300171,4.2200012-13.3699951,9.8000031
		c-1.9000244,4.9700012-0.039978,10.9899902,4.5499878,13.7899933c11.5100098,7.7100067,25.9800415,9.0099945,37.7000122,16.3600006
		c5.960022,3.5500031,11.2600098,8.7900085,13.4500122,15.5299988c2.9699707,8.9899902,0.8900146,19.4599915-5.4500122,26.519989
		c-6.789978,7.8300171-17.0700073,11.5400085-27.0700073,13.0100098
		c-15.8200073,2.2200012-32.3300171-0.3999939-46.5100098-7.8299866c2.2399902-4.5500183,4.5599976-9.0500183,7.0900269-13.4400024
		C858.5,288.6099854,870.25,291.9400024,882.0300293,290.8200073c6.1499634-0.5899963,12.6899414-2.0899963,17.2999878-6.4900208
		c4.4599609-4.2299805,5.1199951-11.5599976,2.0899658-16.7799988c-2.9500122-4.5499878-8.039978-7.019989-12.8399658-9.1399841
		c-10.2800293-4.3300018-21.6000366-6.5500031-30.7900391-13.1900024
		c-5.3800049-3.7599945-10.1300049-8.9900055-11.6599731-15.5299988
		C844.2600098,221.8099976,846.9799805,213.2899933,852.4799805,207.4499969z"/>
	<path style="fill:#003767;" d="M941.8200073,197.3200073c5.710022,0.019989,11.4299927,0.0299988,17.1400146-0.0100098
		c0.0599976,35.1300049,0.0599976,70.25,0,105.3800049c-5.710022-0.0400085-11.4299927-0.0299988-17.1400146-0.0100098
		C941.7299805,267.5599976,941.7299805,232.4400024,941.8200073,197.3200073z"/>
</g>
<g id="Pepsi_Wave">
	<g>
		<path style="fill:#FFFFFF;" d="M337.8675842,78.3977127c69.5463867,69.5205307,69.5463867,182.2688599,0.0099792,251.8025513
			c-34.7695007,34.7642212-80.3346558,52.144989-125.9099426,52.144989c-45.5657654,0-91.1357727-17.3807678-125.9005051-52.144989
			c-69.5257874-69.5336914-69.5363235-182.2820129,0-251.8104553
			c34.7695236-34.7642136,80.3347397-52.1502762,125.9005051-52.1502762
			C257.5329285,26.2395344,303.1033325,43.6282272,337.8675842,78.3977127z"/>
	</g>
	<path style="fill:#0064A7;" d="M354.3632813,112.0119247c3.4136963,11.0944443,5.2938843,22.85215,5.2938843,35.0676346
		c0,39.3947296-19.3821411,74.0510101-48.8399048,95.7610931c-51.2445374,37.7301178-125.9051361,37.7890167-229.0251465,70.2769318
		c31.1350555,37.1928406,77.8914413,60.878418,130.1855164,60.878418c93.7160797,0,169.6930695-75.9749146,169.6930695-169.7062225
		C381.6706848,170.2636108,371.6156006,138.5885773,354.3632813,112.0119247z"/>
	<path style="fill:#E73137;" d="M313.7521057,68.4890976c-28.3566589-21.2828331-63.5966339-33.9077263-101.7744904-33.9077263
		c-93.7259979,0-169.710907,75.9823761-169.710907,169.7084045c0,37.7200165,12.3234406,72.5564728,33.1384621,100.735672
		C189.5368805,271.7836914,279.6669617,182.2583771,313.7521057,68.4890976z"/>
</g>
</svg>
